<svg width="20" height="18" viewBox="0 0 20 18" fill="none" xmlns="http://www.w3.org/2000/svg">
<path fill-rule="evenodd" clip-rule="evenodd" d="M9.88013 2.01405C11.0249 0.77861 12.6287 0.0520888 14.3262 0C17.3273 0 19.7603 2.39588 19.7603 5.35135C19.7603 8.85038 15.8104 12.6852 13.4415 14.9851C13.2282 15.1921 13.0278 15.3868 12.8442 15.5676L10.5915 17.7859C10.4527 17.9228 10.2643 17.9998 10.0678 18H9.6924C9.49594 17.9998 9.30759 17.9228 9.16876 17.7859L6.91609 15.5676C6.73248 15.3868 6.53202 15.1921 6.31874 14.9851C3.94983 12.6852 0 8.85038 0 5.35135C0 2.39588 2.43292 0 5.43407 0C7.13157 0.0520888 8.73538 0.77861 9.88013 2.01405Z" fill="#FD0000"/>
</svg>
